<svg width="24" height="24" viewBox="0 0 24 24" fill="none" xmlns="http://www.w3.org/2000/svg">
<path d="M7 6C8.11659 6 9.12883 6.27528 10.0371 6.8252C10.9454 7.3752 11.6669 8.1 12.2002 9H20L23 12L18.5 16.5L16.5 15L14.5 16.5L12.2002 15C11.6669 15.9 10.9454 16.6248 10.0371 17.1748C9.12883 17.7247 8.11658 18 7 18C5.33333 18 3.91667 17.4167 2.75 16.25C1.58333 15.0833 1 13.6667 1 12C1 10.3333 1.58333 8.91667 2.75 7.75C3.91667 6.58333 5.33333 6 7 6ZM7 8C5.9 8 4.95814 8.39147 4.1748 9.1748C3.39147 9.95814 3 10.9 3 12C3 13.1 3.39147 14.0419 4.1748 14.8252C4.95814 15.6085 5.9 16 7 16C7.93333 16 8.75456 15.7171 9.46289 15.1504C10.1712 14.5837 10.6417 13.8666 10.875 13H13L14.4502 14.0254L16.5 12.5L18.2754 13.875L20.1504 12L19.1504 11H10.875C10.6417 10.1334 10.1712 9.41627 9.46289 8.84961C8.75456 8.28294 7.93333 8 7 8ZM8 11V13H6V11H8Z" fill="black" fill-opacity="0.96"/>
</svg>
