<svg width="24" height="24" viewBox="0 0 24 24" fill="none" xmlns="http://www.w3.org/2000/svg">
<path d="M6.68326 10.3998L10.9259 6.15712L8.09747 3.32869L6.66515 4.76101C4.32874 7.09742 3.74952 10.6668 5.2272 13.6221L5.45637 14.0804C5.95264 15.073 6.60568 15.979 7.39036 16.7637C8.17504 17.5484 9.0811 18.2014 10.0736 18.6977L10.532 18.9269C13.4873 20.4046 17.0567 19.8253 19.3931 17.4889L20.8254 16.0566L17.997 13.2282L13.7543 17.4708L6.68326 10.3998ZM12.3401 7.57133L9.51168 10.3998L13.7543 14.6424L16.5828 11.814C17.3638 11.0329 18.6301 11.0329 19.4112 11.814L22.3139 14.7167C23.0539 15.4567 23.0539 16.6565 22.3139 17.3965L20.8073 18.9031C17.8622 21.8483 13.3629 22.5784 9.63756 20.7157L9.17922 20.4866C7.9944 19.8942 6.91283 19.1146 5.97615 18.1779C5.03947 17.2413 4.25992 16.1597 3.66751 14.9749L3.43834 14.5165C1.57568 10.7912 2.30581 6.29192 5.25094 3.34679L6.75758 1.84016C7.49758 1.10016 8.69736 1.10016 9.43737 1.84016L12.3401 4.7429C13.1212 5.52395 13.1212 6.79028 12.3401 7.57133Z" fill="black" fill-opacity="0.96"/>
</svg>
