<svg width="151" height="150" viewBox="0 0 151 150" fill="none" xmlns="http://www.w3.org/2000/svg">
<mask id="mask0_1264_74117" style="mask-type:alpha" maskUnits="userSpaceOnUse" x="0" y="21" width="149" height="115">
<path d="M25.0469 122.057C25.0469 122.057 39.8069 94.3372 74.2669 79.7372C103.237 67.4672 118.127 43.7472 122.267 28.1172" stroke="url(#paint0_linear_1264_74117)" stroke-width="55" stroke-miterlimit="10"/>
</mask>
<g mask="url(#mask0_1264_74117)">
<path d="M25.0469 122.057C25.0469 122.057 39.8069 94.3372 74.2669 79.7372C103.237 67.4672 118.127 43.7472 122.267 28.1172" stroke="#00AA1E" stroke-width="55" stroke-miterlimit="10"/>
</g>
<path d="M25.94 149.302C40.2663 149.302 51.88 137.688 51.88 123.362C51.88 109.036 40.2663 97.4219 25.94 97.4219C11.6137 97.4219 0 109.036 0 123.362C0 137.688 11.6137 149.302 25.94 149.302Z" fill="#AA68FF"/>
<mask id="mask1_1264_74117" style="mask-type:alpha" maskUnits="userSpaceOnUse" x="0" y="97" width="52" height="53">
<path d="M25.94 149.302C40.2663 149.302 51.88 137.688 51.88 123.362C51.88 109.036 40.2663 97.4219 25.94 97.4219C11.6137 97.4219 0 109.036 0 123.362C0 137.688 11.6137 149.302 25.94 149.302Z" fill="url(#paint1_linear_1264_74117)"/>
</mask>
<g mask="url(#mask1_1264_74117)">
<path d="M25.94 149.302C40.2663 149.302 51.88 137.688 51.88 123.362C51.88 109.036 40.2663 97.4219 25.94 97.4219C11.6137 97.4219 0 109.036 0 123.362C0 137.688 11.6137 149.302 25.94 149.302Z" fill="#CEBAF4"/>
</g>
<path d="M25.9412 142.265C36.385 142.265 44.8512 133.799 44.8512 123.355C44.8512 112.912 36.385 104.445 25.9412 104.445C15.4975 104.445 7.03125 112.912 7.03125 123.355C7.03125 133.799 15.4975 142.265 25.9412 142.265Z" fill="#AA68FF"/>
<mask id="mask2_1264_74117" style="mask-type:alpha" maskUnits="userSpaceOnUse" x="7" y="104" width="38" height="39">
<path d="M25.9412 142.265C36.385 142.265 44.8512 133.799 44.8512 123.355C44.8512 112.912 36.385 104.445 25.9412 104.445C15.4975 104.445 7.03125 112.912 7.03125 123.355C7.03125 133.799 15.4975 142.265 25.9412 142.265Z" fill="url(#paint2_linear_1264_74117)"/>
</mask>
<g mask="url(#mask2_1264_74117)">
<path d="M25.9412 142.265C36.385 142.265 44.8512 133.799 44.8512 123.355C44.8512 112.912 36.385 104.445 25.9412 104.445C15.4975 104.445 7.03125 112.912 7.03125 123.355C7.03125 133.799 15.4975 142.265 25.9412 142.265Z" fill="#CEBAF4"/>
</g>
<path d="M88.6611 103.427L96.3411 99.5166L94.9511 96.7766C98.2411 89.9666 97.7311 79.8766 92.9111 70.3966C88.0811 60.9166 80.2311 54.5666 72.7811 53.2166L71.3911 50.4766L63.7111 54.3866C54.4811 59.0866 52.5811 73.8766 59.4711 87.4166C66.3611 100.957 79.4411 108.127 88.6711 103.427H88.6611Z" fill="#820AD1"/>
<mask id="mask3_1264_74117" style="mask-type:alpha" maskUnits="userSpaceOnUse" x="55" y="50" width="43" height="55">
<path d="M88.6611 103.427L96.3411 99.5166L94.9511 96.7766C98.2411 89.9666 97.7311 79.8766 92.9111 70.3966C88.0811 60.9166 80.2311 54.5666 72.7811 53.2166L71.3911 50.4766L63.7111 54.3866C54.4811 59.0866 52.5811 73.8766 59.4711 87.4166C66.3611 100.957 79.4411 108.127 88.6711 103.427H88.6611Z" fill="url(#paint3_linear_1264_74117)"/>
</mask>
<g mask="url(#mask3_1264_74117)">
<path d="M88.6611 103.427L96.3411 99.5166L94.9511 96.7766C98.2411 89.9666 97.7311 79.8766 92.9111 70.3966C88.0811 60.9166 80.2311 54.5666 72.7811 53.2166L71.3911 50.4766L63.7111 54.3866C54.4811 59.0866 52.5811 73.8766 59.4711 87.4166C66.3611 100.957 79.4411 108.127 88.6711 103.427H88.6611Z" fill="#AA68FF"/>
</g>
<path d="M96.3379 99.5303C105.572 94.8314 107.47 80.0411 100.577 66.4952C93.6837 52.9493 80.61 45.7774 71.376 50.4763C62.1419 55.1752 60.2442 69.9655 67.1372 83.5114C74.0303 97.0573 87.1039 104.229 96.3379 99.5303Z" fill="#AA68FF"/>
<mask id="mask4_1264_74117" style="mask-type:alpha" maskUnits="userSpaceOnUse" x="62" y="49" width="43" height="52">
<path d="M96.3379 99.5284C105.572 94.8295 107.47 80.0391 100.577 66.4932C93.6837 52.9473 80.61 45.7754 71.376 50.4743C62.1419 55.1732 60.2442 69.9636 67.1372 83.5095C74.0303 97.0554 87.1039 104.227 96.3379 99.5284Z" fill="url(#paint4_linear_1264_74117)"/>
</mask>
<g mask="url(#mask4_1264_74117)">
<path d="M96.3379 99.5284C105.572 94.8295 107.47 80.0391 100.577 66.4932C93.6837 52.9473 80.61 45.7754 71.376 50.4743C62.1419 55.1732 60.2442 69.9636 67.1372 83.5095C74.0303 97.0554 87.1039 104.227 96.3379 99.5284Z" fill="#CEBAF4"/>
</g>
<path d="M92.9657 92.8806C99.6993 89.4541 101.085 78.672 96.0603 68.7981C91.0357 58.9241 81.5039 53.6974 74.7703 57.1239C68.0368 60.5504 66.6513 71.3325 71.6758 81.2065C76.7003 91.0804 86.2321 96.3071 92.9657 92.8806Z" fill="#AA68FF"/>
<mask id="mask5_1264_74117" style="mask-type:alpha" maskUnits="userSpaceOnUse" x="68" y="56" width="32" height="38">
<path d="M92.9657 92.8787C99.6993 89.4522 101.085 78.6701 96.0603 68.7961C91.0357 58.9222 81.5039 53.6955 74.7703 57.122C68.0368 60.5485 66.6513 71.3306 71.6758 81.2045C76.7003 91.0785 86.2321 96.3052 92.9657 92.8787Z" fill="url(#paint5_linear_1264_74117)"/>
</mask>
<g mask="url(#mask5_1264_74117)">
<path d="M92.9657 92.8787C99.6993 89.4522 101.085 78.6701 96.0603 68.7961C91.0357 58.9222 81.5039 53.6955 74.7703 57.122C68.0368 60.5485 66.6513 71.3306 71.6758 81.2045C76.7003 91.0785 86.2321 96.3052 92.9657 92.8787Z" fill="#CEBAF4"/>
</g>
<path d="M122.5 55C137.684 55 150 42.6845 150 27.5C150 12.3155 137.684 0 122.5 0C107.316 0 95 12.3155 95 27.5C95 42.6845 107.316 55 122.5 55Z" fill="#00AA1E"/>
<path fill-rule="evenodd" clip-rule="evenodd" d="M138.39 20.4403L118.44 39.8003L107.59 29.0803L110.4 26.2403L118.46 34.2103L135.6 17.5703L138.39 20.4403Z" fill="white"/>
<defs>
<linearGradient id="paint0_linear_1264_74117" x1="125.056" y1="25.5993" x2="25.0469" y2="122.055" gradientUnits="userSpaceOnUse">
<stop stop-opacity="0.6"/>
<stop offset="1" stop-opacity="0"/>
</linearGradient>
<linearGradient id="paint1_linear_1264_74117" x1="39.9628" y1="101.43" x2="8.70422" y2="142.24" gradientUnits="userSpaceOnUse">
<stop/>
<stop offset="1" stop-opacity="0"/>
</linearGradient>
<linearGradient id="paint2_linear_1264_74117" x1="13.914" y1="138.188" x2="37.3579" y2="108.666" gradientUnits="userSpaceOnUse">
<stop/>
<stop offset="1" stop-opacity="0"/>
</linearGradient>
<linearGradient id="paint3_linear_1264_74117" x1="64.8539" y1="54.5425" x2="90.9028" y2="101.43" gradientUnits="userSpaceOnUse">
<stop/>
<stop offset="1" stop-opacity="0"/>
</linearGradient>
<linearGradient id="paint4_linear_1264_74117" x1="81.0621" y1="51.0674" x2="86.5613" y2="99.9813" gradientUnits="userSpaceOnUse">
<stop offset="0.04"/>
<stop offset="1" stop-opacity="0"/>
</linearGradient>
<linearGradient id="paint5_linear_1264_74117" x1="83.8672" y1="94.1927" x2="83.8672" y2="56.2771" gradientUnits="userSpaceOnUse">
<stop/>
<stop offset="1" stop-opacity="0"/>
</linearGradient>
</defs>
</svg>
