<svg width="24" height="24" viewBox="0 0 24 24" fill="none" xmlns="http://www.w3.org/2000/svg">
<path d="M16.1543 14H8.1543V12H16.1543V14Z" fill="black" fill-opacity="0.96"/>
<path d="M8.1543 18H16.1543V16H8.1543V18Z" fill="black" fill-opacity="0.96"/>
<path d="M4.1543 6C4.1543 3.79086 5.94516 2 8.1543 2H13.4974C14.5583 2 15.5757 2.42143 16.3259 3.17157L18.9827 5.82843C19.7329 6.57857 20.1543 7.59599 20.1543 8.65685V18C20.1543 20.2091 18.3634 22 16.1543 22H8.1543C5.94516 22 4.1543 20.2091 4.1543 18V6ZM18.1543 8.65685C18.1543 8.4165 18.111 8.18061 18.0288 7.95959C17.9391 7.98576 17.8425 8 17.7401 8H15.1543C14.602 8 14.1543 7.55228 14.1543 7V4.41421C14.1543 4.31177 14.1685 4.2152 14.1947 4.12548C13.9737 4.04326 13.7378 4 13.4974 4H8.1543C7.04973 4 6.1543 4.89543 6.1543 6V18C6.1543 19.1046 7.04973 20 8.1543 20H16.1543C17.2589 20 18.1543 19.1046 18.1543 18V8.65685Z" fill="black" fill-opacity="0.96"/>
</svg>
