<svg width="24" height="24" viewBox="0 0 24 24" fill="none" xmlns="http://www.w3.org/2000/svg">
<path d="M12 2C16.4183 2 20 5.58172 20 10C20 10.6906 19.9126 11.3608 19.748 12H22V14H21V22H3V14H2V12H4.25195C4.08743 11.3608 4 10.6906 4 10C4 5.58172 7.58172 2 12 2ZM5 14V20H19V14H5ZM12 4C8.68629 4 6 6.68629 6 10C6 10.7013 6.12069 11.3744 6.3418 12H13.3623C13.547 12 13.706 11.8696 13.7422 11.6885C13.7847 11.4761 13.6448 11.2702 13.4316 11.2314L10.71 10.7363C9.39664 10.4974 8.5341 9.22792 8.7959 7.91895C9.01017 6.84823 9.92125 6.06546 11 6.00391V5H13V6H15V8H11.1377C10.953 8 10.7931 8.1304 10.7568 8.31152C10.7144 8.52394 10.8552 8.7298 11.0684 8.76855L13.7891 9.26367C15.0755 9.49756 15.9292 10.7199 15.7178 12H17.6582C17.8793 11.3744 18 10.7013 18 10C18 6.68629 15.3137 4 12 4Z" fill="black" fill-opacity="0.96"/>
</svg>
