<svg width="24" height="24" viewBox="0 0 24 24" fill="none" xmlns="http://www.w3.org/2000/svg">
<path d="M13 8.26795C12.6187 8.04782 12.1755 7.95965 11.739 8.01711C11.3025 8.07458 10.8971 8.27447 10.5858 8.58579C10.2745 8.89711 10.0746 9.30245 10.0171 9.73895C9.99093 9.93785 9.99498 10.1381 10.028 10.3333L8.05595 10.6667C7.98996 10.2763 7.98186 9.87567 8.03422 9.4779C8.14916 8.6049 8.54894 7.79421 9.17158 7.17158C9.79421 6.54894 10.6049 6.14916 11.4779 6.03422C12.3509 5.91929 13.2374 6.09563 14 6.5359C14.7626 6.97617 15.3586 7.65576 15.6955 8.46927C16.0325 9.28278 16.0916 10.1847 15.8637 11.0353C15.6358 11.8858 15.1336 12.6374 14.435 13.1734C14.0123 13.4978 13.6358 13.8134 13.3654 14.1449C13.099 14.4713 13 14.7347 13 14.9635V15H11V14.9635C11 14.1079 11.384 13.4096 11.8157 12.8805C12.2433 12.3564 12.7799 11.9225 13.2175 11.5867C13.5668 11.3187 13.8179 10.9429 13.9319 10.5176C14.0458 10.0924 14.0162 9.64139 13.8478 9.23464C13.6793 8.82788 13.3813 8.48809 13 8.26795Z" fill="white"/>
<path d="M13 18V16H11V18H13Z" fill="white"/>
<path d="M12 22C17.5228 22 22 17.5228 22 12C22 6.47715 17.5228 2 12 2C6.47715 2 2 6.47715 2 12C2 17.5228 6.47715 22 12 22ZM12 20C7.58172 20 4 16.4183 4 12C4 7.58172 7.58172 4 12 4C16.4183 4 20 7.58172 20 12C20 16.4183 16.4183 20 12 20Z" fill="white"/>
</svg>
