<svg width="24" height="24" viewBox="0 0 24 24" fill="none" xmlns="http://www.w3.org/2000/svg">
<path d="M7.65332 14.999C10.522 14.9992 12.8773 17.1961 13.1299 19.999H11.1172C10.8746 18.3031 9.41627 16.9992 7.65332 16.999C5.89021 16.999 4.43107 18.303 4.18848 19.999H2.17578C2.42838 17.196 4.78451 14.999 7.65332 14.999ZM16.1523 11.999C19.4658 11.999 22.1523 14.6856 22.1523 17.999V19.999H20.1523V17.999C20.1523 15.79 18.3613 13.999 16.1523 13.999C14.9464 13.999 13.8652 14.5329 13.1318 15.377C12.6757 14.8892 12.1544 14.4626 11.583 14.1104C12.6835 12.8185 14.3224 11.999 16.1523 11.999ZM7.6543 7C9.58683 7.00021 11.1531 8.5665 11.1533 10.499C11.1533 12.4317 9.58697 13.9988 7.6543 13.999C5.72144 13.999 4.1543 12.4319 4.1543 10.499C4.15453 8.56637 5.72158 7 7.6543 7ZM7.6543 9C6.82607 9 6.15453 9.67086 6.1543 10.499C6.1543 11.3274 6.82593 11.999 7.6543 11.999C8.48248 11.9988 9.15332 11.3273 9.15332 10.499C9.15308 9.67099 8.48234 9.00021 7.6543 9ZM16.1533 3C18.3623 3.00002 20.1533 4.79103 20.1533 7C20.1532 9.20884 18.3622 10.999 16.1533 10.999C13.9444 10.999 12.1535 9.20885 12.1533 7C12.1533 4.79102 13.9443 3 16.1533 3ZM16.1533 5C15.0488 5 14.1533 5.89551 14.1533 7C14.1535 8.10436 15.0489 9 16.1533 9C17.2577 8.99998 18.1532 8.10435 18.1533 7C18.1533 5.89552 17.2578 5.00002 16.1533 5Z" fill="white"/>
</svg>
