<svg width="24" height="24" viewBox="0 0 24 24" fill="none" xmlns="http://www.w3.org/2000/svg">
<path d="M7.00038 6.82593L10.0002 4.25463V6.88878L6.65123 9.75935C6.46612 9.91801 6.2375 9.99825 6.00838 10.0001H5.99251C5.76338 9.99825 5.53476 9.91801 5.34965 9.75934L2.00024 6.88841L2.00024 4.25424L5.00038 6.82581L5.00024 2.00006L7.00024 2L7.00038 6.82593Z" fill="black" fill-opacity="0.96"/>
<path d="M12.0002 4H20.3486V7.5L19.0545 8.30882L20.2552 10.1099C20.6259 10.6659 21.2494 10.9995 21.9176 11H23.3486V16C22.5405 16.4849 21.8369 17.022 21.1533 17.5438C19.7222 18.6362 18.3789 19.6616 16.3486 20V22H14.3486V20H7.34863V22H5.34863V20C1.84863 17 1.34863 14.9611 1.34863 12C1.34863 11.6613 1.36968 11.3276 1.41053 11H3.43159C3.37703 11.3252 3.34863 11.6593 3.34863 12C3.34863 13.3737 3.46887 14.2922 3.86116 15.1673C4.21174 15.9494 4.8482 16.845 6.10669 18H16.1714C17.5702 17.7304 18.5354 17.026 19.9398 15.954L19.97 15.9309C20.3851 15.6141 20.8436 15.2641 21.3486 14.9142V12.9592C20.2333 12.7987 19.2265 12.1724 18.5911 11.2193L16.2479 7.70446L18.3486 6.3915V6H12.0002V4Z" fill="black" fill-opacity="0.96"/>
<path d="M17.3486 11H15.3486V13H17.3486V11Z" fill="black" fill-opacity="0.96"/>
</svg>
