<svg width="24" height="24" viewBox="0 0 24 24" fill="none" xmlns="http://www.w3.org/2000/svg">
<path d="M17.1538 7C17.1538 9.76142 14.9152 12 12.1538 12C9.39238 12 7.15381 9.76142 7.15381 7C7.15381 4.23858 9.39238 2 12.1538 2C14.9152 2 17.1538 4.23858 17.1538 7ZM15.1538 7C15.1538 5.34315 13.8107 4 12.1538 4C10.497 4 9.15381 5.34315 9.15381 7C9.15381 8.65685 10.497 10 12.1538 10C13.8107 10 15.1538 8.65685 15.1538 7Z" fill="white"/>
<path d="M20.1538 22C20.1538 17.5817 16.5721 14 12.1538 14C7.73553 14 4.15381 17.5817 4.15381 22H6.15381C6.15381 18.6863 8.8401 16 12.1538 16C15.4675 16 18.1538 18.6863 18.1538 22H20.1538Z" fill="white"/>
</svg>
