<svg width="24" height="24" viewBox="0 0 24 24" fill="none" xmlns="http://www.w3.org/2000/svg">
<path d="M2.99897 13.536L3.1059 13.3675C5.01687 10.3549 7.14504 7 12.1548 7C17.1645 7 19.2927 10.3549 21.2036 13.3675L21.3105 13.536L22.999 12.464C22.939 12.3696 22.8783 12.2736 22.8167 12.1761C20.9553 9.23351 18.2773 5 12.1548 5C6.03224 5 3.35426 9.23351 1.49285 12.1762C1.43127 12.2735 1.37043 12.3697 1.31055 12.464L2.99897 13.536Z" fill="white"/>
<path d="M16.1548 13C16.1548 15.2091 14.3639 17 12.1548 17C9.94562 17 8.15476 15.2091 8.15476 13C8.15476 10.7909 9.94562 9 12.1548 9C14.3639 9 16.1548 10.7909 16.1548 13ZM14.1548 13C14.1548 11.8954 13.2593 11 12.1548 11C11.0502 11 10.1548 11.8954 10.1548 13C10.1548 14.1046 11.0502 15 12.1548 15C13.2593 15 14.1548 14.1046 14.1548 13Z" fill="white"/>
</svg>
