<svg width="24" height="24" viewBox="0 0 24 24" fill="none" xmlns="http://www.w3.org/2000/svg">
<path fill-rule="evenodd" clip-rule="evenodd" d="M4.84496 11.4467C5.459 11.141 5.76934 10.5991 5.76934 9.83242C5.76934 8.61605 4.94693 8 3.32647 8H0.147635C0.0500986 8 -0.0186215 8.09668 0.0101985 8.19111L0.990007 11.3681C1.00774 11.4243 1.00774 11.4827 0.990007 11.5389L0.00576255 14.8733C-0.0208375 14.9677 0.0478825 15.0621 0.145423 15.0621H3.63017C5.75826 15.0621 6.07526 13.8413 6.07526 13.115C6.07526 12.2134 5.68289 11.6783 4.84274 11.449L4.84496 11.4467ZM1.72819 9.25009H3.32869C4.02032 9.25009 4.35727 9.5199 4.35727 10.0752C4.35727 10.6846 4.02475 10.9589 3.28214 10.9589H2.16489C2.10282 10.9589 2.04518 10.9161 2.02745 10.8554L1.59075 9.4412C1.56193 9.34677 1.63065 9.25009 1.72819 9.25009ZM3.6479 13.8098H1.72819C1.63065 13.8098 1.56193 13.7154 1.58853 13.6209L2.02302 12.1842C2.04075 12.1235 2.09839 12.0808 2.16267 12.0808H3.61465C4.35062 12.0808 4.72304 12.3731 4.72304 12.9509C4.72304 13.4973 4.33067 13.8098 3.6479 13.8098ZM6.82233 15.0576H7.88195C7.96175 15.0576 8.02825 14.9924 8.02825 14.9115V12.0448C8.02825 11.1455 8.36076 10.8285 9.29623 10.8285H9.89255C9.95461 10.8285 10.0078 10.788 10.03 10.7295C10.2051 10.2461 10.4889 9.85266 10.8635 9.56487C10.9743 9.47943 10.9167 9.30181 10.777 9.30181H9.5157C8.7221 9.30181 8.28096 9.68628 8.03268 10.6396V9.44795C8.03268 9.36701 7.9684 9.30181 7.8886 9.30181H6.82233C6.74252 9.30181 6.67824 9.36701 6.67824 9.44795V14.9115C6.67824 14.9924 6.74252 15.0576 6.82233 15.0576ZM18.1212 11.9864H16.3611C16.2813 11.9864 16.217 11.9212 16.217 11.8402V11.06C16.217 10.9769 16.2813 10.9117 16.3611 10.9117H18.1123C18.1456 10.9117 18.1744 10.9341 18.1855 10.9656L18.3229 11.4085C18.3318 11.4355 18.3318 11.467 18.3229 11.494L18.1944 11.9302C18.1855 11.9639 18.1544 11.9864 18.1212 11.9864ZM13.109 9.26362C11.3844 9.26362 10.3137 10.408 10.3137 12.2494C10.3137 14.0909 11.3844 15.0981 13.109 15.0981C14.2374 15.0981 15.0265 14.635 15.4233 13.7536C15.461 13.6727 15.4167 13.576 15.3302 13.5513L14.3925 13.2814C14.3283 13.2635 14.2618 13.2927 14.2285 13.3489C14.0534 13.6479 13.743 13.8818 13.1223 13.8818C12.2911 13.8818 11.8078 13.4681 11.6814 12.6497H15.594L15.5985 12.589C15.6206 12.3013 15.6206 12.0787 15.6206 11.863V11.856C15.6206 10.2327 14.6829 9.26362 13.109 9.26362ZM11.6925 11.5952C11.8366 10.8307 12.2999 10.444 13.0736 10.444C13.8472 10.444 14.2618 10.8217 14.346 11.5952H11.6925ZM23.6919 9.83242C23.6919 10.5991 23.3815 11.141 22.7675 11.4467V11.4512C23.6076 11.6806 24 12.2157 24 13.1173C24 13.8435 23.683 15.0644 21.5549 15.0644H18.0657C17.9704 15.0644 17.9017 14.9699 17.9283 14.8778L18.9125 11.5389C18.9303 11.4827 18.9303 11.4243 18.9125 11.3681L17.9305 8.18661C17.9017 8.09443 17.9704 8 18.0657 8H21.249C22.8694 8 23.6919 8.61605 23.6919 9.83242ZM21.2512 9.25009H19.6485C19.551 9.25009 19.4822 9.34677 19.5111 9.4412L19.9478 10.8554C19.9677 10.9161 20.0231 10.9589 20.0874 10.9589H21.2047C21.9495 10.9589 22.2798 10.6846 22.2798 10.0752C22.2798 9.5199 21.9428 9.25009 21.2512 9.25009ZM19.6507 13.8098H21.5682C22.251 13.8098 22.6433 13.4973 22.6433 12.9509C22.6433 12.3731 22.2709 12.0808 21.535 12.0808H20.083C20.0209 12.0808 19.9633 12.1235 19.9455 12.1842L19.5111 13.6209C19.4845 13.7154 19.5532 13.8098 19.6507 13.8098Z" fill="black" fill-opacity="0.96"/>
</svg>
