<svg width="24" height="24" viewBox="0 0 24 24" fill="none" xmlns="http://www.w3.org/2000/svg">
<path d="M23.9981 5.7372V12.0028C23.9989 12.5123 24.0002 13.023 23.962 13.5302C23.8208 15.4489 22.3254 17.0181 20.418 17.2753C20.2131 17.3016 20.0065 17.3162 19.7999 17.3192C19.7591 17.3185 19.7183 17.3268 19.6807 17.3427C19.6432 17.3586 19.609 17.3822 19.5811 17.412C18.2636 18.7176 16.1104 18.9581 14.5694 17.9677C13.7008 17.4088 13.1786 16.591 12.8604 15.6278C12.6201 14.9025 12.5334 14.1508 12.5294 13.3935C12.5154 11.5628 12.5107 9.73098 12.5069 7.89931C12.5055 7.20828 12.504 6.51713 12.502 5.82607C12.502 5.81064 12.504 5.79484 12.5059 5.77431C12.5069 5.76447 12.5078 5.75277 12.5089 5.74013H15.6778V5.88564C15.6784 6.46784 15.6785 7.05052 15.6788 7.63271C15.6795 9.13659 15.68 10.6408 15.6866 12.1444C15.6868 12.1983 15.6874 12.2526 15.6876 12.3065C15.6889 12.9236 15.69 13.5426 15.8214 14.1503C16.0395 15.1626 16.4971 16.0293 17.3643 16.6366C18.0323 17.1042 18.7868 17.3006 19.5948 17.3046C19.6571 17.2968 19.7144 17.2667 19.7559 17.2196C20.2879 16.644 20.5877 15.9564 20.7266 15.1913C20.8101 14.7319 20.8304 14.2687 20.8341 13.8046V13.3231C20.8316 11.3404 20.8279 9.35738 20.8243 7.3749V5.7372H23.9981ZM4.41901 6.58584C5.81792 5.19856 8.13655 5.02444 9.67292 6.19716C10.4868 6.81851 10.9533 7.66609 11.2227 8.63564C11.4369 9.40755 11.4808 10.1995 11.4844 10.995C11.4922 12.7498 11.4953 14.5048 11.4981 16.2597C11.4991 16.8913 11.4998 17.5234 11.501 18.1552C11.5013 18.1765 11.4995 18.1978 11.4971 18.2216C11.496 18.2328 11.4943 18.2447 11.4932 18.2577H8.32331V18.0985C8.32268 17.5025 8.3226 16.9065 8.32233 16.3104C8.32166 14.8206 8.32075 13.3307 8.31452 11.8407C8.31429 11.7804 8.31365 11.7195 8.31354 11.6591C8.31251 11.0481 8.31178 10.4351 8.17975 9.83388C7.94627 8.77001 7.44901 7.87694 6.50983 7.27626C5.87502 6.87056 5.16933 6.70226 4.42292 6.69423C4.35552 6.70027 4.2924 6.73183 4.24714 6.78212C3.66549 7.41108 3.34313 8.16381 3.25397 9.00576C3.19888 9.52474 3.18791 10.0504 3.1778 10.5731C3.1763 10.6506 3.17554 10.7282 3.17389 10.8056C3.16713 11.1172 3.17142 11.4294 3.17585 11.7411C3.17855 11.9319 3.18157 12.1227 3.18171 12.3134V18.2538H0.00494851V18.0907C0.00447228 17.5603 0.00374604 17.0293 0.00299539 16.4989C0.00088036 15.0045 -0.00200666 13.51 0.00201883 12.0155C0.00201883 11.4388 0.00197771 10.8576 0.0645188 10.286C0.262383 8.52281 1.61804 7.08595 3.36237 6.75869C3.59693 6.71472 3.83757 6.70008 4.07721 6.68544C4.11859 6.68292 4.15994 6.68031 4.20124 6.67763C4.24178 6.67754 4.28201 6.66986 4.3194 6.65419C4.35684 6.63847 4.39051 6.61476 4.41901 6.58584Z" fill="black" fill-opacity="0.96"/>
</svg>
