<svg width="20" height="20" viewBox="0 0 20 20" fill="none" xmlns="http://www.w3.org/2000/svg">
<path d="M13.4616 10C13.4616 11.8409 11.9692 13.3333 10.1283 13.3333C8.28731 13.3333 6.79492 11.8409 6.79492 10C6.79492 8.15905 8.28731 6.66667 10.1283 6.66667C11.9692 6.66667 13.4616 8.15905 13.4616 10ZM11.7949 10C11.7949 9.07953 11.0487 8.33333 10.1283 8.33333C9.20778 8.33333 8.46159 9.07953 8.46159 10C8.46159 10.9205 9.20778 11.6667 10.1283 11.6667C11.0487 11.6667 11.7949 10.9205 11.7949 10Z" fill="black" fill-opacity="0.64"/>
<path d="M18.4616 10L16.4069 13.625L14.2949 17.2169L10.1283 17.25L5.96159 17.2169L3.84957 13.625L1.79492 10L3.84957 6.375L5.96159 2.78312L10.1283 2.75L14.2949 2.78312L16.4069 6.375L18.4616 10ZM14.9635 7.20836L13.337 4.44223L10.1283 4.41672L6.91947 4.44223L5.29298 7.20838L3.71069 10L5.29297 12.7916L6.91947 15.5578L10.1283 15.5833L13.337 15.5578L14.9635 12.7916L16.5458 10L14.9635 7.20836Z" fill="black" fill-opacity="0.64"/>
</svg>
