<svg width="24" height="24" viewBox="0 0 24 24" fill="none" xmlns="http://www.w3.org/2000/svg">
<path d="M17.25 14H19V16H15.3877C15.2031 16.0001 15.044 16.1305 15.0078 16.3115C14.9654 16.5239 15.1054 16.7297 15.3184 16.7686L18.04 17.2637C19.3535 17.5025 20.2159 18.772 19.9541 20.0811C19.7308 21.1968 18.7511 21.9999 17.6133 22H17.25V23H15.25V22H13V20H17.6133C17.7979 19.9999 17.957 19.8695 17.9932 19.6885C18.0356 19.4761 17.8956 19.2703 17.6826 19.2314L14.9609 18.7363C13.6475 18.4975 12.7851 17.228 13.0469 15.9189C13.2611 14.8485 14.1716 14.0658 15.25 14.0039V13H17.25V14ZM16 2C18.2091 2 20 3.79086 20 6V11H18V6C18 4.89543 17.1046 4 16 4H8C6.89543 4 6 4.89543 6 6V18C6 19.1046 6.89543 20 8 20H11V22H8C5.79086 22 4 20.2091 4 18V6C4 3.79086 5.79086 2 8 2H16ZM14 7V10H12V7H14Z" fill="black" fill-opacity="0.96"/>
</svg>
