<svg width="24" height="24" viewBox="0 0 24 24" fill="none" xmlns="http://www.w3.org/2000/svg">
<path d="M7.15381 11C9.36295 11 11.1538 9.20914 11.1538 7C11.1538 4.79086 9.36295 3 7.15381 3C4.94467 3 3.15381 4.79086 3.15381 7C3.15381 9.20914 4.94467 11 7.15381 11ZM7.15381 9C6.04924 9 5.15381 8.10457 5.15381 7C5.15381 5.89543 6.04924 5 7.15381 5C8.25838 5 9.15381 5.89543 9.15381 7C9.15381 8.10457 8.25838 9 7.15381 9Z" fill="black" fill-opacity="0.32"/>
<path d="M21.1538 7C21.1538 9.20914 19.3629 11 17.1538 11C14.9447 11 13.1538 9.20914 13.1538 7C13.1538 4.79086 14.9447 3 17.1538 3C19.3629 3 21.1538 4.79086 21.1538 7ZM19.1538 7C19.1538 5.89543 18.2584 5 17.1538 5C16.0492 5 15.1538 5.89543 15.1538 7C15.1538 8.10457 16.0492 9 17.1538 9C18.2584 9 19.1538 8.10457 19.1538 7Z" fill="black" fill-opacity="0.32"/>
<path d="M21.1538 17C21.1538 19.2091 19.3629 21 17.1538 21C14.9447 21 13.1538 19.2091 13.1538 17C13.1538 14.7909 14.9447 13 17.1538 13C19.3629 13 21.1538 14.7909 21.1538 17ZM19.1538 17C19.1538 15.8954 18.2584 15 17.1538 15C16.0492 15 15.1538 15.8954 15.1538 17C15.1538 18.1046 16.0492 19 17.1538 19C18.2584 19 19.1538 18.1046 19.1538 17Z" fill="black" fill-opacity="0.32"/>
<path d="M11.1538 17C11.1538 19.2091 9.36295 21 7.15381 21C4.94467 21 3.15381 19.2091 3.15381 17C3.15381 14.7909 4.94467 13 7.15381 13C9.36295 13 11.1538 14.7909 11.1538 17ZM9.15381 17C9.15381 15.8954 8.25838 15 7.15381 15C6.04924 15 5.15381 15.8954 5.15381 17C5.15381 18.1046 6.04924 19 7.15381 19C8.25838 19 9.15381 18.1046 9.15381 17Z" fill="black" fill-opacity="0.32"/>
</svg>
