<svg width="24" height="24" viewBox="0 0 24 24" fill="none" xmlns="http://www.w3.org/2000/svg">
<path d="M12.75 3.5C15.5114 3.5 17.75 5.73858 17.75 8.5H15.75C15.75 6.84315 14.4069 5.5 12.75 5.5H10.3398C9.11353 5.5 8.09208 6.44003 7.99023 7.66211C7.89232 8.83709 8.67719 9.90332 9.82812 10.1592L15.249 11.3643C18.4039 12.0653 19.7818 15.7905 17.8428 18.376C16.8399 19.713 15.2661 20.5 13.5947 20.5H12.75V23H10.75V20.5C7.71243 20.5 5.25 18.0376 5.25 15H7.25C7.25 16.933 8.817 18.5 10.75 18.5H13.5947C14.6367 18.5 15.618 18.0094 16.2432 17.1758C17.3104 15.7528 16.5518 13.7023 14.8154 13.3164L9.39453 12.1123C7.26719 11.6396 5.81613 9.66779 5.99707 7.49609C6.18529 5.23743 8.07335 3.5 10.3398 3.5H10.75V1H12.75V3.5Z"/>
</svg>
