<svg width="24" height="24" viewBox="0 0 24 24" fill="none" xmlns="http://www.w3.org/2000/svg">
<path d="M21 14V7L3 7L3 17L13 17V19H1V5H23L23 14H21Z" fill="black" fill-opacity="0.96"/>
<path d="M15 12.0004C15 13.6572 13.6569 15.0004 12 15.0004C10.3431 15.0004 9 13.6572 9 12.0004C9 10.3435 10.3431 9.00037 12 9.00037C13.6569 9.00037 15 10.3435 15 12.0004ZM12.0273 13H12.9998V12.0227L13 12.0004L12.9998 11.978V11H10.9998V13H11.9727C11.9818 13.0002 11.9909 13.0004 12 13.0004C12.0091 13.0004 12.0182 13.0002 12.0273 13Z" fill="black" fill-opacity="0.96"/>
<path d="M18.0002 18.1742V23H20.0002V18.1742L23 20.7454V18.1113L19.651 15.2407C19.4659 15.082 19.2372 15.0018 19.008 15H18.9924C18.7632 15.0018 18.5345 15.082 18.3494 15.2407L15 18.1117V20.7458L18.0002 18.1742Z" fill="black" fill-opacity="0.96"/>
</svg>
