<svg width="24" height="24" viewBox="0 0 24 24" fill="none" xmlns="http://www.w3.org/2000/svg">
<path d="M19 3H5C4.44772 3 4 3.44772 4 4V21C4 21.3466 4.17945 21.6684 4.47427 21.8507C4.76909 22.0329 5.13723 22.0494 5.44721 21.8944L7.5 20.8682L9.55279 21.8944C9.83431 22.0352 10.1657 22.0352 10.4472 21.8944L12.5 20.8682L14.5528 21.8944C14.8343 22.0352 15.1657 22.0352 15.4472 21.8944L17.5 20.8682L19.5528 21.8944C19.8628 22.0494 20.2309 22.0329 20.5257 21.8507C20.8206 21.6684 21 21.3466 21 21V4C21 3.44772 20.5523 3 20 3H19ZM19 19.382L17.9472 18.8556C17.6657 18.7148 17.3343 18.7148 17.0528 18.8556L15 19.882L12.9472 18.8556C12.6657 18.7148 12.3343 18.7148 12.0528 18.8556L10 19.882L7.94721 18.8556C7.66569 18.7148 7.33431 18.7148 7.05279 18.8556L6 19.382V5H19V19.382Z"/>
<path d="M8 9H16V11H8V9Z"/>
<path d="M8 13H13V15H8V13Z"/>
</svg>
