<svg width="24" height="24" viewBox="0 0 24 24" fill="none" xmlns="http://www.w3.org/2000/svg">
<path d="M7.5 15.9999H5.07129C5.94785 17.5183 7.30309 18.7121 8.93262 19.3886C10.7492 20.1427 12.7798 20.2009 14.6367 19.5526C16.4937 18.9043 18.0476 17.5949 19 15.8739C19.3293 15.2788 19.5786 14.6486 19.7461 13.9999H21.7979C21.5963 14.9872 21.2449 15.9467 20.749 16.8427C19.5585 18.9936 17.617 20.6309 15.2959 21.4413C12.9749 22.2516 10.4366 22.1787 8.16602 21.2362C6.50196 20.5454 5.06696 19.4225 4 17.9999V20.9999H2V14.9999C2.00008 14.4477 2.44776 13.9999 3 13.9999H7.5V15.9999ZM12.7959 7.9999H14.7969V9.9999H10.9336C10.749 10 10.5899 10.1304 10.5537 10.3114C10.5113 10.5237 10.6513 10.7296 10.8643 10.7685L13.5859 11.2636C14.8994 11.5024 15.7618 12.7719 15.5 14.081C15.2767 15.1966 14.297 15.9997 13.1592 15.9999H12.7959V16.9999H10.7959V15.9999H9.29688V13.9999H13.1592C13.3438 13.9997 13.5029 13.8694 13.5391 13.6884C13.5815 13.476 13.4415 13.2703 13.2285 13.2313L10.5068 12.7362C9.19341 12.4974 8.33097 11.2279 8.59277 9.91885C8.80698 8.84834 9.71744 8.06566 10.7959 8.00381V6.9999H12.7959V7.9999ZM8.7041 2.5585C11.0252 1.74821 13.5634 1.82193 15.834 2.76455C17.498 3.45537 18.933 4.57735 20 5.9999V2.9999H22V8.9999C22 9.55219 21.5523 9.9999 21 9.9999H16.5V7.9999H18.9287C18.0521 6.48154 16.6969 5.28773 15.0674 4.61123C13.2508 3.85711 11.2202 3.79889 9.36328 4.44717C7.50629 5.09554 5.95243 6.40493 5 8.12588C4.67066 8.72097 4.42139 9.35122 4.25391 9.9999C3.50305 9.9999 2.21319 9.9999 2.20215 9.9999C2.40365 9.01272 2.75518 8.054 3.25098 7.15811C4.44151 5.00688 6.38284 3.36897 8.7041 2.5585Z"/>
</svg>
